<svg xmlns="http://www.w3.org/2000/svg" xmlns:xlink="http://www.w3.org/1999/xlink" width="96pt" height="96pt"
     viewBox="0 0 96 96" version="1.1">
  <g id="surface1">
    <path style=" stroke:none;fill-rule:nonzero;fill:#F0625F;fill-opacity:1;"
          d="M 88 8.125 C 80 12.125 68.046875 24.1875 65.625 26.875 L 68 36.125 L 64 28 C 63.125 28.84375 51.6875 41.078125 48 48.125 L 52 56.125 L 46.125 50.25 C 46.125 50.25 32 64 40 72 C 40 72 52 63.96875 64 48.125 C 72.703125 36.625 80 24 80 24 C 80 24 76 40 64 56 C 58.625 63.15625 44 76 44 76 C 56 88 70.125 64.25 70.125 64.25 L 64 60.125 L 72 60.125 C 72 60.125 78.8125 51.75 80 48 L 72 48.125 L 81 45 C 81.09375 44.71875 88 24.125 88 8.125 Z M 44 76 L 40 72 C 40 72 28 80 8 84 L 12 88 C 32 84 44 76 44 76 Z "/>
  </g>
</svg>
